# xmcd CD database file generated by OrangeCD 5.2
#
# Track frame offsets:
#	151
#	13069
#	27593
#	44402
#	57805
#	75686
#	90461
#	102725
#	113476
#	136956
#	151361
#	166579
#	178891
#	195045
#	214038
#	230335
#	245468
#	256426
#	273639
#	294443
#
# Disc length: 4070 seconds
#
# Revision: 1
# Processed by: cddbd v1.5.1PL0 Copyright (c) Steve Scherf et al.
# Submitted via: OrangeCD 5.2
#
DISCID=0e0fe414
DTITLE=Sean Kenny and The Nadine Somers Band - Line Dance Crazy 3 [CD1]
DYEAR=2000
DGENRE=Line Dance
TTITLE0=Sure Feels Real Good
TTITLE1=I'm Alright
TTITLE2=Mr Right
TTITLE3=Perfect Love
TTITLE4=Who's Cheating Who
TTITLE5=Husbands And Wives
TTITLE6=Do You Wanna Make Something Of It
TTITLE7=Crazy Little Thing Called Love
TTITLE8=Commitment
TTITLE9=Hillbilly Shoes
TTITLE10=Little Goodbyes
TTITLE11=If The Jukebox Took Teardrops
TTITLE12=Stomp
TTITLE13=The Trouble With Never
TTITLE14=Back In Your Arms Again
TTITLE15=I'll Think Of A Reason Later
TTITLE16=We Really Shouldn't Be Doing This
TTITLE17=Kick A Little
TTITLE18=Strawberry Wine
TTITLE19=Swing Like That
EXTD=
EXTT0=
EXTT1=
EXTT2=
EXTT3=
EXTT4=
EXTT5=
EXTT6=
EXTT7=
EXTT8=
EXTT9=
EXTT10=
EXTT11=
EXTT12=
EXTT13=
EXTT14=
EXTT15=
EXTT16=
EXTT17=
EXTT18=
EXTT19=
PLAYORDER=
